<?xml version="1.0" encoding="iso-8859-1"?>
<!-- Generator: Adobe Illustrator 19.0.0, SVG Export Plug-In . SVG Version: 6.00 Build 0)  -->
<svg version="1.1" id="Layer_1" xmlns="http://www.w3.org/2000/svg" xmlns:xlink="http://www.w3.org/1999/xlink" x="0px" y="0px"
	 viewBox="0 0 281.19 281.19" style="enable-background:new 0 0 281.19 281.19;" xml:space="preserve">
<g>
	<path style="fill:#808285;" d="M5,15v251.19c0,5.523,4.477,10,10,10h251.19c5.523,0,10-4.477,10-10V82.445
		c0-2.652-1.053-5.196-2.929-7.071L205.817,7.929C203.941,6.053,201.398,5,198.745,5H15C9.477,5,5,9.477,5,15z"/>
	<rect x="41.759" y="140.595" style="fill:#FFFFFF;" width="197.672" height="100"/>
	<rect x="41.759" y="5" style="fill:#FFE49C;" width="152.919" height="100"/>
	<rect x="134.678" y="45" style="fill:#A7A9AC;" width="30" height="30"/>
	<g>
		<path style="fill:#393654;" d="M276.797,71.838L209.351,4.393C206.518,1.56,202.752,0,198.746,0C191.538,0,23.049,0,15,0
			C6.729,0,0,6.729,0,15v251.19c0,8.271,6.729,15,15,15h251.19c8.272,0,15-6.729,15-15V82.445
			C281.19,78.438,279.63,74.67,276.797,71.838z M189.678,10v90H46.76V10H189.678z M271.19,266.19c0,2.757-2.243,5-5,5H15
			c-2.757,0-5-2.243-5-5V15c0-2.757,2.243-5,5-5h21.76v95c0,2.761,2.239,5,5,5h152.919c2.762,0,5-2.239,5-5V10.094
			c0.977,0.188,1.894,0.662,2.603,1.371l67.445,67.446c0.944,0.943,1.464,2.199,1.464,3.535L271.19,266.19L271.19,266.19z"/>
		<path style="fill:#393654;" d="M239.431,135.595H41.76c-2.761,0-5,2.239-5,5v100c0,2.761,2.239,5,5,5h197.672c2.762,0,5-2.239,5-5
			v-100C244.431,137.834,242.193,135.595,239.431,135.595z M234.431,235.595H46.76v-90h187.672L234.431,235.595L234.431,235.595z"/>
		<path style="fill:#393654;" d="M134.678,80h30c2.762,0,5-2.239,5-5V45c0-2.761-2.238-5-5-5h-30c-2.761,0-5,2.239-5,5v30
			C129.678,77.761,131.917,80,134.678,80z M139.678,50h20v20h-20V50z"/>
		<path style="fill:#393654;" d="M81.595,171.095h118c2.762,0,5-2.239,5-5s-2.238-5-5-5h-118c-2.761,0-5,2.239-5,5
			S78.834,171.095,81.595,171.095z"/>
		<path style="fill:#393654;" d="M81.595,195.595h118c2.762,0,5-2.239,5-5s-2.238-5-5-5h-118c-2.761,0-5,2.239-5,5
			S78.834,195.595,81.595,195.595z"/>
		<path style="fill:#393654;" d="M81.595,220.095h118c2.762,0,5-2.239,5-5s-2.238-5-5-5h-118c-2.761,0-5,2.239-5,5
			S78.834,220.095,81.595,220.095z"/>
	</g>
</g>
<g>
</g>
<g>
</g>
<g>
</g>
<g>
</g>
<g>
</g>
<g>
</g>
<g>
</g>
<g>
</g>
<g>
</g>
<g>
</g>
<g>
</g>
<g>
</g>
<g>
</g>
<g>
</g>
<g>
</g>
</svg>
